<?xml version="1.0" encoding="UTF-8"?>
<svg id="Layer_2" data-name="Layer 2" xmlns="http://www.w3.org/2000/svg" viewBox="0 0 1105.31 866.08">
  <g id="Layer_1-2" data-name="Layer 1">
    <g>
      <g>
        <path d="M608.93,241.79v47.7l103.58,52.53-15.63,12.93-97.98-49.27-36.74,13.13v51.41l16.56,11.52c8.14,5.68,18.93,5.76,27.15.16l30.78-20.91,18.33,10.6-37.67,25.58c-15.15,10.31-35.09,10.19-50.12-.28l-14.54-10.15-14.5,10.15c-15.03,10.47-34.97,10.6-50.12.28l-37.71-25.58,18.33-10.6,30.82,20.91c8.22,5.6,19.02,5.52,27.15-.16l16.52-11.52v-51.41l-36.74-13.13-97.98,47.82-15.63-12.93,103.58-51.08v-47.7l-103.58-59.74v-67.08l122.59,71.19v22l-103.58-60.15v23.04l103.58,59.78v58.05l37.26,13.46,37.26-13.46v-58.05l103.58-59.78v-23.04l-103.58,60.15v-22l122.59-71.19v67.08l-103.58,59.74Z"/>
        <path d="M719.84,74.76l-167.19,100.8-167.19-100.8c-4.47-2.7-5.92-8.58-3.22-13.05,1.77-2.98,4.96-4.63,8.14-4.63,1.69,0,3.38.44,4.92,1.37l157.36,94.87,157.36-94.87c1.53-.93,3.22-1.37,4.92-1.37,3.18,0,6.37,1.65,8.14,4.63,2.7,4.47,1.25,10.35-3.22,13.05Z"/>
        <polygon points="611.11 74.68 552.66 116.46 494.2 74.68 611.11 74.68"/>
        <path d="M775.56,54.9l-4.55,76.3v100.29l-19.02-11v-89.58l4.59-77.15c.73-12.57-5.28-23.85-16.11-30.21-10.84-6.37-23.65-6.08-34.24.68l-56.84,36.38-96.73-28.36-96.73,28.36-56.84-36.38c-10.6-6.77-23.41-7.05-34.24-.68-10.84,6.37-16.84,17.65-16.11,30.21l4.59,77.15v89.58l-19.02,11v-100.29l-4.55-76.3c-1.17-19.54,8.58-37.83,25.46-47.74,16.88-9.91,37.63-9.51,54.1,1.05l49.59,31.71,93.75-27.48,93.75,27.48,49.59-31.71c16.48-10.55,37.22-10.96,54.1-1.05,16.88,9.91,26.63,28.2,25.46,47.74Z"/>
        <polygon points="476.71 253.71 476.71 275.71 476.31 275.47 457.41 264.51 392.79 226.96 392.79 204.97 476.71 253.71"/>
        <polygon points="454.99 286.22 434.41 296.25 414.95 284.97 392.79 272.08 392.79 250.09 435.46 274.86 454.99 286.22"/>
        <polygon points="628.59 253.71 628.59 275.71 628.99 275.47 647.89 264.51 712.5 226.96 712.5 204.97 628.59 253.71"/>
        <polygon points="650.3 286.22 670.89 296.25 690.35 284.97 712.5 272.08 712.5 250.09 669.84 274.86 650.3 286.22"/>
      </g>
      <g>
        <g>
          <path d="M0,554.4v-43.15h187.62v43.15H0ZM69.11,732.02v-217.95h49.72v217.95h-49.72Z"/>
          <path d="M376.65,650.09l-85.06-138.84h56.91l65.36,111.95h-36.9l65.36-111.95h55.97l-85.68,138.84h-35.96ZM370.4,732.02v-104.76h49.72v104.76h-49.72Z"/>
          <path d="M695.42,735.77c-16.26,0-31.43-2.97-45.5-8.91-14.07-5.94-26.32-14.12-36.74-24.55-10.43-10.42-18.61-22.52-24.55-36.27-5.94-13.76-8.91-28.66-8.91-44.72s3.02-31.22,9.07-44.87c6.04-13.65,14.49-25.64,25.33-35.96,10.84-10.32,23.4-18.4,37.68-24.23,14.28-5.83,29.65-8.75,46.12-8.75,18.97,0,36.27,3.49,51.91,10.47,15.64,6.99,28.56,16.53,38.78,28.61l-33.77,33.77c-6.88-9.17-15.17-16.1-24.86-20.79-9.69-4.69-20.48-7.04-32.36-7.04-12.93,0-24.5,2.87-34.71,8.6-10.22,5.74-18.19,13.76-23.92,24.08-5.74,10.32-8.6,22.36-8.6,36.12s2.81,25.54,8.44,35.96c5.63,10.43,13.34,18.61,23.14,24.55,9.8,5.94,21.05,8.91,33.77,8.91s23.61-2.45,32.68-7.35c9.07-4.89,16.05-12.04,20.95-21.42,4.9-9.38,7.35-20.64,7.35-33.78l32.83,21.89-98.5-1.56v-41.59h116.02v7.2c0,26.26-4.74,48.47-14.23,66.61-9.49,18.14-22.62,31.85-39.4,41.12-16.79,9.28-36.12,13.92-58.01,13.92Z"/>
          <path d="M926.76,732.02v-220.77h49.41v220.77h-49.41ZM964.6,641.33v-36.9h46.59c9.59,0,17.09-2.45,22.52-7.35,5.42-4.9,8.13-11.52,8.13-19.86s-2.66-14.49-7.97-19.7c-5.32-5.21-12.77-7.82-22.36-7.82h-46.91v-38.46h52.53c14.8,0,27.72,2.77,38.78,8.29,11.05,5.52,19.65,13.19,25.8,22.98,6.15,9.8,9.23,20.95,9.23,33.46,0,13.34-3.13,24.86-9.38,34.55-6.26,9.69-15.01,17.25-26.27,22.67-11.26,5.43-24.5,8.13-39.71,8.13h-50.97ZM1046.84,732.02l-68.79-95.06,45.34-12.51,81.93,107.57h-58.48Z"/>
        </g>
        <g>
          <path d="M302.11,865.46l-17.21-42.82h6.35l14.13,36.21h-2.28l14.25-36.21h6.23l-17.28,42.82h-4.2Z"/>
          <path d="M362.54,865.46v-42.82h5.8v42.82h-5.8ZM366.49,827.95v-5.31h24.25v5.31h-24.25ZM366.49,846.15v-5.12h22.52v5.12h-22.52ZM366.49,865.46v-5.31h24.56v5.31h-24.56Z"/>
          <path d="M431.57,865.46v-42.82h4.07l1.73,6.79v36.03h-5.8ZM461.18,865.46l-26.28-35.04.74-7.77,26.34,35.04-.8,7.77ZM461.18,865.46l-1.73-6.35v-36.46h5.8v42.82h-4.07Z"/>
          <path d="M504.18,827.95v-5.31h34.86v5.31h-34.86ZM518.68,865.46v-41.58h5.86v41.58h-5.86Z"/>
          <path d="M594.36,866.08c-3.17,0-6.01-.72-8.51-2.16-2.51-1.44-4.49-3.4-5.95-5.89-1.46-2.49-2.19-5.3-2.19-8.42v-26.96h5.86v26.84c0,2.26.47,4.22,1.42,5.86.95,1.64,2.23,2.92,3.86,3.82,1.62.91,3.46,1.36,5.52,1.36s3.88-.45,5.46-1.36c1.58-.9,2.84-2.18,3.76-3.82.93-1.64,1.39-3.58,1.39-5.8v-26.9h5.86v27.02c0,3.13-.72,5.92-2.16,8.39-1.44,2.47-3.39,4.42-5.86,5.86-2.47,1.44-5.28,2.16-8.45,2.16Z"/>
          <path d="M653.58,865.46v-42.82h5.8v42.82h-5.8ZM657.47,846.83v-4.87h11.6c2.51,0,4.43-.64,5.77-1.91,1.34-1.27,2.01-3,2.01-5.18,0-2.06-.67-3.76-2.01-5.12-1.34-1.36-3.24-2.04-5.71-2.04h-11.66v-5.06h11.85c2.72,0,5.08.52,7.1,1.57,2.01,1.05,3.57,2.48,4.66,4.29,1.09,1.81,1.63,3.89,1.63,6.23s-.55,4.55-1.63,6.35c-1.09,1.81-2.64,3.22-4.66,4.23-2.02,1.01-4.38,1.51-7.1,1.51h-11.85ZM678.26,865.46l-15.55-19.19,5.49-1.91,17.4,21.1h-7.34Z"/>
          <path d="M724.68,865.46v-42.82h5.8v42.82h-5.8ZM728.63,827.95v-5.31h24.25v5.31h-24.25ZM728.63,846.15v-5.12h22.52v5.12h-22.52ZM728.63,865.46v-5.31h24.56v5.31h-24.56Z"/>
          <path d="M805.86,866.08c-3.33,0-6.19-.62-8.58-1.85-2.39-1.23-4.5-3.02-6.35-5.37l3.95-3.95c1.36,1.89,2.92,3.32,4.69,4.29,1.77.97,3.95,1.45,6.54,1.45s4.6-.55,6.14-1.67c1.54-1.11,2.31-2.63,2.31-4.57,0-1.6-.38-2.9-1.14-3.88-.76-.99-1.76-1.8-2.99-2.44-1.24-.64-2.59-1.2-4.07-1.7-1.48-.49-2.96-1.04-4.44-1.63-1.48-.6-2.85-1.35-4.1-2.25-1.25-.91-2.25-2.07-2.99-3.49-.74-1.42-1.11-3.24-1.11-5.46,0-2.43.59-4.49,1.76-6.2,1.17-1.71,2.78-3.02,4.81-3.95,2.04-.92,4.33-1.39,6.88-1.39,2.8,0,5.31.55,7.53,1.64,2.22,1.09,4.03,2.52,5.43,4.29l-3.95,3.95c-1.27-1.48-2.64-2.59-4.1-3.33-1.46-.74-3.14-1.11-5.03-1.11-2.3,0-4.13.5-5.49,1.51-1.36,1.01-2.04,2.42-2.04,4.23,0,1.44.38,2.6,1.14,3.49.76.89,1.76,1.64,2.99,2.25,1.23.62,2.6,1.18,4.1,1.69,1.5.52,2.99,1.08,4.47,1.7,1.48.62,2.84,1.4,4.07,2.34,1.23.95,2.23,2.17,2.99,3.67.76,1.5,1.14,3.38,1.14,5.64,0,3.79-1.31,6.75-3.92,8.89-2.61,2.14-6.16,3.21-10.64,3.21Z"/>
        </g>
      </g>
    </g>
  </g>
</svg>