<?xml version="1.0" encoding="UTF-8"?>
<svg id="Layer_2" data-name="Layer 2" xmlns="http://www.w3.org/2000/svg" viewBox="0 0 549.75 499">
  <g id="Layer_1-2" data-name="Layer 1">
    <g>
      <path d="M344.24,298.04v58.8l127.67,64.75-19.27,15.94-120.77-60.73-45.29,16.19v63.36l20.41,14.2c10.03,7,23.34,7.1,33.47.2l37.94-25.77,22.59,13.06-46.43,31.53c-18.67,12.71-43.25,12.56-61.77-.35l-17.93-12.51-17.88,12.51c-18.52,12.91-43.1,13.06-61.77.35l-46.48-31.53,22.59-13.06,37.99,25.77c10.13,6.9,23.44,6.8,33.47-.2l20.36-14.2v-63.36l-45.29-16.19-120.77,58.94-19.27-15.94,127.67-62.97v-58.8l-127.67-73.64v-82.68l151.11,87.75v27.11l-127.67-74.14v28.4l127.67,73.69v71.56l45.93,16.59,45.93-16.59v-71.56l127.67-73.69v-28.4l-127.67,74.14v-27.11l151.11-87.75v82.68l-127.67,73.64Z"/>
      <path d="M480.96,92.15l-206.08,124.25L68.79,92.15c-5.51-3.33-7.3-10.58-3.97-16.09,2.18-3.67,6.11-5.71,10.03-5.71,2.09,0,4.17.55,6.06,1.69l193.97,116.95,193.97-116.95c1.89-1.14,3.97-1.69,6.06-1.69,3.92,0,7.85,2.04,10.03,5.71,3.33,5.51,1.54,12.76-3.97,16.09Z"/>
      <polygon points="346.93 92.05 274.88 143.55 202.82 92.05 346.93 92.05"/>
      <path d="M549.64,67.67l-5.61,94.05v123.62l-23.44-13.56v-110.42l5.66-95.1c.89-15.49-6.51-29.4-19.86-37.24-13.36-7.85-29.15-7.5-42.21.84l-70.07,44.84-119.23-34.96-119.23,34.96L85.58,29.88c-13.06-8.34-28.85-8.69-42.21-.84-13.36,7.85-20.76,21.75-19.86,37.24l5.66,95.1v110.42l-23.44,13.56v-123.62L.12,67.67C-1.32,43.59,10.69,21.04,31.5,8.83c20.81-12.22,46.38-11.72,66.69,1.29l61.13,39.08,115.56-33.87,115.56,33.87,61.13-39.08c20.31-13.01,45.88-13.51,66.69-1.29,20.81,12.22,32.82,34.76,31.38,58.85Z"/>
      <polygon points="181.26 312.74 181.26 339.85 180.76 339.55 157.47 326.04 77.82 279.76 77.82 252.65 181.26 312.74"/>
      <polygon points="154.49 352.81 129.12 365.17 105.13 351.27 77.82 335.38 77.82 308.27 130.41 338.81 154.49 352.81"/>
      <polygon points="368.47 312.74 368.47 339.85 368.97 339.55 392.26 326.04 471.91 279.76 471.91 252.65 368.47 312.74"/>
      <polygon points="395.24 352.81 420.61 365.17 444.6 351.27 471.91 335.38 471.91 308.27 419.32 338.81 395.24 352.81"/>
    </g>
  </g>
</svg>