<?xml version="1.0" encoding="UTF-8"?>
<svg id="Layer_1" data-name="Layer 1" xmlns="http://www.w3.org/2000/svg" viewBox="0 0 1300 900">
  <defs>
    <style>
      .cls-1 {
        fill: #eb8400;
      }

      .cls-2 {
        fill: #f2f2f2;
      }
    </style>
  </defs>
  <rect class="cls-1" x="-16.04" y="-11.1" width="1332.07" height="922.2"/>
  <g>
    <g>
      <path class="cls-2" d="M663.5,404.12v11.44l24.85,12.6-3.75,3.1-23.5-11.82-8.81,3.15v12.33l3.97,2.76c1.95,1.36,4.54,1.38,6.51.04l7.38-5.02,4.4,2.54-9.04,6.14c-3.63,2.47-8.42,2.45-12.02-.07l-3.49-2.44-3.48,2.44c-3.6,2.51-8.39,2.54-12.02.07l-9.05-6.14,4.4-2.54,7.39,5.02c1.97,1.34,4.56,1.32,6.51-.04l3.96-2.76v-12.33l-8.81-3.15-23.5,11.47-3.75-3.1,24.85-12.25v-11.44l-24.85-14.33v-16.09l29.41,17.08v5.28l-24.85-14.43v5.53l24.85,14.34v13.93l8.94,3.23,8.94-3.23v-13.93l24.85-14.34v-5.53l-24.85,14.43v-5.28l29.41-17.08v16.09l-24.85,14.33Z"/>
      <path class="cls-2" d="M690.11,364.05l-40.11,24.18-40.11-24.18c-1.07-.65-1.42-2.06-.77-3.13.43-.72,1.19-1.11,1.95-1.11.41,0,.81.11,1.18.33l37.75,22.76,37.75-22.76c.37-.22.77-.33,1.18-.33.76,0,1.53.4,1.95,1.11.65,1.07.3,2.48-.77,3.13Z"/>
      <polygon class="cls-2" points="664.02 364.03 650 374.05 635.98 364.03 664.02 364.03"/>
      <path class="cls-2" d="M703.47,359.29l-1.09,18.3v24.06l-4.56-2.64v-21.49l1.1-18.51c.17-3.02-1.27-5.72-3.87-7.25-2.6-1.53-5.67-1.46-8.21.16l-13.64,8.73-23.2-6.8-23.2,6.8-13.64-8.73c-2.54-1.62-5.62-1.69-8.21-.16-2.6,1.53-4.04,4.23-3.87,7.25l1.1,18.51v21.49l-4.56,2.64v-24.06l-1.09-18.3c-.28-4.69,2.06-9.07,6.11-11.45s9.03-2.28,12.98.25l11.9,7.61,22.49-6.59,22.49,6.59,11.9-7.61c3.95-2.53,8.93-2.63,12.98-.25s6.39,6.77,6.11,11.45Z"/>
      <polygon class="cls-2" points="631.78 406.98 631.78 412.26 631.68 412.2 627.15 409.57 611.65 400.56 611.65 395.29 631.78 406.98"/>
      <polygon class="cls-2" points="626.57 414.78 621.63 417.19 616.97 414.48 611.65 411.39 611.65 406.11 621.88 412.05 626.57 414.78"/>
      <polygon class="cls-2" points="668.22 406.98 668.22 412.26 668.31 412.2 672.84 409.57 688.35 400.56 688.35 395.29 668.22 406.98"/>
      <polygon class="cls-2" points="673.42 414.78 678.36 417.19 683.03 414.48 688.35 411.39 688.35 406.11 678.11 412.05 673.42 414.78"/>
    </g>
    <g>
      <g>
        <path class="cls-2" d="M517.42,479.11v-10.35h45.01v10.35h-45.01ZM534,521.72v-52.29h11.93v52.29h-11.93Z"/>
        <path class="cls-2" d="M607.78,502.07l-20.4-33.31h13.65l15.68,26.86h-8.85l15.68-26.86h13.43l-20.55,33.31h-8.63ZM606.28,521.72v-25.13h11.93v25.13h-11.93Z"/>
        <path class="cls-2" d="M684.25,522.62c-3.9,0-7.54-.71-10.91-2.14-3.38-1.43-6.31-3.39-8.81-5.89-2.5-2.5-4.46-5.4-5.89-8.7-1.43-3.3-2.14-6.88-2.14-10.73s.72-7.49,2.18-10.76c1.45-3.27,3.48-6.15,6.08-8.63,2.6-2.48,5.61-4.41,9.04-5.81,3.43-1.4,7.11-2.1,11.06-2.1,4.55,0,8.7.84,12.45,2.51,3.75,1.68,6.85,3.96,9.3,6.86l-8.1,8.1c-1.65-2.2-3.64-3.86-5.96-4.99-2.33-1.13-4.91-1.69-7.76-1.69-3.1,0-5.88.69-8.33,2.06-2.45,1.38-4.36,3.3-5.74,5.78-1.38,2.48-2.06,5.36-2.06,8.66s.67,6.13,2.03,8.63c1.35,2.5,3.2,4.46,5.55,5.89,2.35,1.43,5.05,2.14,8.1,2.14s5.66-.59,7.84-1.76c2.18-1.17,3.85-2.89,5.03-5.14,1.17-2.25,1.76-4.95,1.76-8.1l7.88,5.25-23.63-.37v-9.98h27.83v1.73c0,6.3-1.14,11.63-3.41,15.98-2.28,4.35-5.43,7.64-9.45,9.86-4.03,2.23-8.66,3.34-13.92,3.34Z"/>
        <path class="cls-2" d="M739.74,521.72v-52.96h11.85v52.96h-11.85ZM748.82,499.97v-8.85h11.18c2.3,0,4.1-.59,5.4-1.76,1.3-1.18,1.95-2.76,1.95-4.76s-.64-3.48-1.91-4.73c-1.28-1.25-3.06-1.88-5.36-1.88h-11.25v-9.23h12.6c3.55,0,6.65.66,9.3,1.99,2.65,1.33,4.71,3.16,6.19,5.51,1.47,2.35,2.21,5.03,2.21,8.03,0,3.2-.75,5.96-2.25,8.29-1.5,2.33-3.6,4.14-6.3,5.44-2.7,1.3-5.88,1.95-9.53,1.95h-12.23ZM768.55,521.72l-16.5-22.8,10.88-3,19.65,25.81h-14.03Z"/>
      </g>
      <g>
        <path class="cls-2" d="M589.9,553.73l-4.13-10.27h1.52l3.39,8.69h-.55l3.42-8.69h1.49l-4.14,10.27h-1.01Z"/>
        <path class="cls-2" d="M604.39,553.73v-10.27h1.39v10.27h-1.39ZM605.34,544.74v-1.27h5.82v1.27h-5.82ZM605.34,549.1v-1.23h5.4v1.23h-5.4ZM605.34,553.73v-1.27h5.89v1.27h-5.89Z"/>
        <path class="cls-2" d="M620.95,553.73v-10.27h.98l.41,1.63v8.64h-1.39ZM628.06,553.73l-6.3-8.41.18-1.86,6.32,8.41-.19,1.86ZM628.06,553.73l-.41-1.52v-8.75h1.39v10.27h-.98Z"/>
        <path class="cls-2" d="M638.37,544.74v-1.27h8.36v1.27h-8.36ZM641.85,553.73v-9.98h1.41v9.98h-1.41Z"/>
        <path class="cls-2" d="M660,553.88c-.76,0-1.44-.17-2.04-.52-.6-.34-1.08-.82-1.43-1.41-.35-.6-.53-1.27-.53-2.02v-6.47h1.41v6.44c0,.54.11,1.01.34,1.41s.54.7.92.92c.39.22.83.33,1.32.33s.93-.11,1.31-.33c.38-.22.68-.52.9-.92.22-.39.33-.86.33-1.39v-6.45h1.41v6.48c0,.75-.17,1.42-.52,2.01-.35.59-.81,1.06-1.41,1.41-.59.35-1.27.52-2.03.52Z"/>
        <path class="cls-2" d="M674.21,553.73v-10.27h1.39v10.27h-1.39ZM675.14,549.26v-1.17h2.78c.6,0,1.06-.15,1.38-.46.32-.31.48-.72.48-1.24,0-.49-.16-.9-.48-1.23-.32-.33-.78-.49-1.37-.49h-2.8v-1.21h2.84c.65,0,1.22.13,1.7.38.48.25.86.59,1.12,1.03.26.43.39.93.39,1.5s-.13,1.09-.39,1.52c-.26.43-.63.77-1.12,1.01-.48.24-1.05.36-1.7.36h-2.84ZM680.13,553.73l-3.73-4.6,1.32-.46,4.17,5.06h-1.76Z"/>
        <path class="cls-2" d="M691.27,553.73v-10.27h1.39v10.27h-1.39ZM692.21,544.74v-1.27h5.82v1.27h-5.82ZM692.21,549.1v-1.23h5.4v1.23h-5.4ZM692.21,553.73v-1.27h5.89v1.27h-5.89Z"/>
        <path class="cls-2" d="M710.74,553.88c-.8,0-1.49-.15-2.06-.44-.57-.3-1.08-.73-1.52-1.29l.95-.95c.33.45.7.8,1.12,1.03s.95.35,1.57.35,1.1-.13,1.47-.4c.37-.27.55-.63.55-1.1,0-.38-.09-.7-.27-.93-.18-.24-.42-.43-.72-.58-.3-.15-.62-.29-.98-.41-.36-.12-.71-.25-1.07-.39-.36-.14-.68-.32-.98-.54-.3-.22-.54-.5-.72-.84-.18-.34-.27-.78-.27-1.31,0-.58.14-1.08.42-1.49.28-.41.67-.72,1.15-.95.49-.22,1.04-.33,1.65-.33.67,0,1.27.13,1.81.39s.97.6,1.3,1.03l-.95.95c-.31-.36-.63-.62-.98-.8-.35-.18-.75-.27-1.21-.27-.55,0-.99.12-1.32.36-.33.24-.49.58-.49,1.01,0,.35.09.62.27.84.18.21.42.39.72.54.3.15.62.28.98.41.36.12.72.26,1.07.41.36.15.68.34.98.56.3.23.54.52.72.88.18.36.27.81.27,1.35,0,.91-.31,1.62-.94,2.13-.63.51-1.48.77-2.55.77Z"/>
      </g>
    </g>
  </g>
</svg>